HIERARCHY
ROOT Pelvis
{
	OFFSET 0.000000 0.000000 0.000000
	CHANNELS 6 Xposition Yposition Zposition Xrotation Yrotation Zrotation
	JOINT LeftUpLeg_virtual
	{
		OFFSET 0.000000 0.000000 0.000000
		CHANNELS 3 Xrotation Yrotation Zrotation
		JOINT LeftUpLeg
		{
			OFFSET 18.735201 -5.666702 -4.541200
			CHANNELS 3 Xrotation Yrotation Zrotation
			JOINT LeftLeg
			{
				OFFSET -0.021200 -31.938179 0.493100
				CHANNELS 3 Xrotation Yrotation Zrotation
				JOINT LeftFoot
				{
					OFFSET 0.021200 -31.938179 -4.336299
					CHANNELS 3 Xrotation Yrotation Zrotation
					JOINT LeftToeBase
					{
						OFFSET 0.943001 -26.722000 15.023500
						CHANNELS 3 Xrotation Yrotation Zrotation
						End Site
						{
							OFFSET 0 0 0
						}
					}
				}
			}
		}
	}
	JOINT RightUpLeg_virtual
	{
		OFFSET 0.000000 0.000000 0.000000
		CHANNELS 3 Xrotation Yrotation Zrotation
		JOINT RightUpLeg
		{
			OFFSET -18.735201 -5.666702 -4.541200
			CHANNELS 3 Xrotation Yrotation Zrotation
			JOINT RightLeg
			{
				OFFSET 0.018946 -31.938133 0.493100
				CHANNELS 3 Xrotation Yrotation Zrotation
				JOINT RightFoot
				{
					OFFSET -0.018946 -31.938126 -4.336299
					CHANNELS 3 Xrotation Yrotation Zrotation
					JOINT RightToeBase
					{
						OFFSET -0.943001 -26.722004 15.023500
						CHANNELS 3 Xrotation Yrotation Zrotation
						End Site
						{
							OFFSET 0 0 0
						}
					}
				}
			}
		}
	}
	JOINT Hips_virtual
	{
		OFFSET 0.000000 0.000000 0.000000
		CHANNELS 3 Xrotation Yrotation Zrotation
		JOINT Hips
		{
			OFFSET -0.000000 -0.000000 -0.000000
			CHANNELS 3 Xrotation Yrotation Zrotation
			JOINT Spine
			{
				OFFSET 0.000000 10.199997 -0.299500
				CHANNELS 3 Xrotation Yrotation Zrotation
				JOINT Spine1
				{
					OFFSET 0.000000 11.900002 -1.516600
					CHANNELS 3 Xrotation Yrotation Zrotation
					JOINT Spine2
					{
						OFFSET 0.000000 13.600006 -2.842500
						CHANNELS 3 Xrotation Yrotation Zrotation
						JOINT Neck_virtual
						{
							OFFSET 0.000000 0.000000 0.000000
							CHANNELS 3 Xrotation Yrotation Zrotation
							JOINT Neck
							{
								OFFSET 0.000000 9.624100 -2.890100
								CHANNELS 3 Xrotation Yrotation Zrotation
								JOINT Head
								{
									OFFSET 0.000000 14.068802 -1.351900
									CHANNELS 3 Xrotation Yrotation Zrotation
									End Site
									{
										OFFSET 0 0 0
									}
								}
							}
						}
						JOINT LeftShoulder_virtual
						{
							OFFSET 0.000000 0.000000 0.000000
							CHANNELS 3 Xrotation Yrotation Zrotation
							JOINT LeftShoulder
							{
								OFFSET 15.263000 10.923401 -0.547700
								CHANNELS 3 Xrotation Yrotation Zrotation
								JOINT LeftArm
								{
									OFFSET 25.438599 -2.830597 -13.032500
									CHANNELS 3 Xrotation Yrotation Zrotation
									JOINT LeftForeArm
									{
										OFFSET 29.960503 0.000000 0.000000
										CHANNELS 3 Xrotation Yrotation Zrotation
										JOINT LeftHand
										{
											OFFSET 27.849251 0.000000 0.000000
											CHANNELS 3 Xrotation Yrotation Zrotation
											End Site
											{
												OFFSET 0 0 0
											}
										}
									}
								}
							}
						}
						JOINT RightShoulder_virtual
						{
							OFFSET 0.000000 0.000000 0.000000
							CHANNELS 3 Xrotation Yrotation Zrotation
							JOINT RightShoulder
							{
								OFFSET -15.263000 10.923401 -0.547700
								CHANNELS 3 Xrotation Yrotation Zrotation
								JOINT RightArm
								{
									OFFSET -25.438599 -2.830597 -13.032500
									CHANNELS 3 Xrotation Yrotation Zrotation
									JOINT RightForeArm
									{
										OFFSET -29.960503 0.000000 0.000000
										CHANNELS 3 Xrotation Yrotation Zrotation
										JOINT RightHand
										{
											OFFSET -27.849251 0.000000 0.000000
											CHANNELS 3 Xrotation Yrotation Zrotation
											End Site
											{
												OFFSET 0 0 0
											}
										}
									}
								}
							}
						}
					}
				}
			}
		}
	}
}
MOTION
Frames: 6
Frame Time: 0.03333333
4.327806 89.128052 -2.427393 0.000000 0.000000 0.000000 7.742702 -32.336168 -17.315366 -40.693881 -10.602365 23.883438 65.214045 6.034328 9.755172 -20.876794 31.661714 -13.940729 0.000000 0.000000 0.000000 7.742702 -32.336168 -17.315366 -22.418846 6.037550 25.436651 -0.314043 -0.418357 3.338341 17.830414 11.771032 -5.296407 0.000000 0.000000 0.000000 7.742702 -32.336168 -17.315366 -0.000001 0.000001 0.000001 19.768565 -6.712380 12.336353 14.882776 -0.853694 11.261192 0.000000 0.000000 0.000000 15.131246 -0.648052 9.675234 0.498569 -0.565460 2.363964 0.000000 0.000000 0.000000 15.131246 -0.648052 9.675234 1.428814 -22.224476 -11.600547 -29.377094 -24.713914 -57.022852 -0.000000 -6.918352 0.000005 0.000000 0.000000 0.000000 15.131246 -0.648052 9.675234 2.724532 8.294350 13.453004 6.429294 49.813826 20.457865 0.000001 22.722608 -0.000003 0.000000 0.000000 0.000000 
4.272036 89.133537 -2.427763 0.000000 0.000000 0.000000 7.748008 -32.209693 -17.306899 -40.729248 -10.579402 23.952172 65.156904 6.001167 9.754340 -20.843174 31.482316 -13.957506 0.000000 0.000000 0.000000 7.748008 -32.209693 -17.306899 -22.380510 6.047172 25.480051 -0.313725 -0.394705 3.307880 17.762943 11.625262 -5.334975 0.000000 0.000000 0.000000 7.748008 -32.209693 -17.306899 -0.000000 0.000002 0.000001 19.694985 -6.739530 12.412723 14.845370 -0.865576 11.290753 0.000000 0.000000 0.000000 15.093026 -0.659109 9.704713 0.508492 -0.564964 2.361567 0.000000 0.000000 0.000000 15.093026 -0.659109 9.704713 1.421042 -22.263283 -11.624763 -29.239490 -24.946689 -57.154033 -0.000005 -6.919546 -0.000010 0.000000 0.000000 0.000000 15.093026 -0.659109 9.704713 2.805141 8.300645 13.088453 6.473860 49.476333 20.586783 -0.000004 23.126211 0.000010 0.000000 0.000000 0.000000 
4.216009 89.142708 -2.425287 0.000000 0.000000 0.000000 7.750036 -32.063647 -17.294269 -40.754482 -10.564980 24.004625 65.079135 5.995404 9.753876 -20.792520 31.272998 -13.985867 0.000000 0.000000 0.000000 7.750036 -32.063647 -17.294269 -22.333670 6.059913 25.515143 -0.311888 -0.367106 3.277115 17.685358 11.459615 -5.371360 0.000000 0.000000 0.000000 7.750036 -32.063647 -17.294269 0.000000 0.000001 -0.000001 19.624016 -6.765307 12.490433 14.807953 -0.877138 11.320874 0.000000 0.000000 0.000000 15.054849 -0.669728 9.734745 0.518158 -0.564814 2.359691 0.000000 0.000000 0.000000 15.054849 -0.669728 9.734745 1.413653 -22.300060 -11.647849 -29.076747 -25.170193 -57.285350 -0.000008 -6.920558 0.000005 0.000000 0.000000 0.000000 15.054849 -0.669728 9.734745 2.887485 8.303043 12.724784 6.502539 49.145076 20.735549 0.000006 23.528018 -0.000024 0.000000 0.000000 0.000000 
4.159952 89.155693 -2.419552 0.000000 0.000000 0.000000 7.748209 -31.899101 -17.277525 -40.766268 -10.559497 24.039042 64.981368 6.011749 9.753794 -20.726347 31.046908 -14.024765 0.000000 0.000000 0.000000 7.748209 -31.899101 -17.277525 -22.275002 6.075607 25.540579 -0.312823 -0.340570 3.246746 17.600564 11.281315 -5.407342 0.000000 0.000000 0.000000 7.748209 -31.899101 -17.277525 0.000000 0.000000 -0.000002 19.555163 -6.788842 12.569455 14.770579 -0.887979 11.351586 0.000000 0.000000 0.000000 15.016748 -0.679456 9.765317 0.527482 -0.565088 2.358169 0.000000 0.000000 0.000000 15.016748 -0.679456 9.765317 1.406871 -22.333691 -11.669298 -28.888828 -25.384555 -57.416319 -0.000008 -6.922043 -0.000000 0.000000 0.000000 0.000000 15.016748 -0.679456 9.765317 2.971382 8.302330 12.360874 6.513137 48.819945 20.906743 -0.000001 23.926614 -0.000011 0.000000 0.000000 0.000000 
4.103912 89.171944 -2.410233 0.000000 0.000000 0.000000 7.742682 -31.719521 -17.257936 -40.765612 -10.561346 24.057125 64.868369 6.039691 9.754191 -20.651039 30.814347 -14.066850 0.000000 0.000000 0.000000 7.742682 -31.719521 -17.257936 -22.206683 6.093261 25.557284 -0.313523 -0.318007 3.218091 17.508654 11.095882 -5.443796 0.000000 0.000000 0.000000 7.742682 -31.719521 -17.257936 -0.000001 0.000000 0.000000 19.487208 -6.809311 12.650076 14.733111 -0.897702 11.382968 0.000000 0.000000 0.000000 14.978625 -0.687924 9.796561 0.536401 -0.565852 2.357043 0.000000 0.000000 0.000000 14.978625 -0.687924 9.796561 1.400860 -22.363192 -11.688503 -28.676225 -25.589621 -57.546932 -0.000000 -6.924428 0.000006 0.000000 0.000000 0.000000 14.978625 -0.687924 9.796561 3.056622 8.299160 11.995883 6.503498 48.500845 21.102858 0.000001 24.320685 -0.000020 0.000000 0.000000 0.000000 
4.048014 89.191078 -2.396919 0.000000 0.000000 0.000000 7.733267 -31.527668 -17.236281 -40.751572 -10.569589 24.059755 64.743910 6.066557 9.755049 -20.571136 30.589658 -14.106940 0.000000 0.000000 0.000000 7.733267 -31.527668 -17.236281 -22.127479 6.112779 25.565671 -0.315857 -0.304480 3.191515 17.411216 10.911173 -5.482834 0.000000 0.000000 0.000000 7.733267 -31.527668 -17.236281 0.000000 -0.000002 0.000001 19.418749 -6.826231 12.732917 14.695244 -0.906009 11.415254 0.000000 0.000000 0.000000 14.940141 -0.694864 9.828641 0.545007 -0.567153 2.356256 0.000000 0.000000 0.000000 14.940141 -0.694864 9.828641 1.395838 -22.387856 -11.704759 -28.439678 -25.784985 -57.677184 -0.000010 -6.927887 -0.000017 0.000000 0.000000 0.000000 14.940141 -0.694864 9.828641 3.143126 8.293929 11.629424 6.471676 48.187627 21.326117 -0.000000 24.709061 -0.000003 0.000000 0.000000 0.000000 
